<?xml version="1.0" encoding="UTF-8" standalone="no"?>
<svg
   xmlns:dc="http://purl.org/dc/elements/1.1/"
   xmlns:cc="http://creativecommons.org/ns#"
   xmlns:rdf="http://www.w3.org/1999/02/22-rdf-syntax-ns#"
   xmlns:svg="http://www.w3.org/2000/svg"
   xmlns="http://www.w3.org/2000/svg"
   xmlns:xlink="http://www.w3.org/1999/xlink"
   xmlns:sodipodi="http://sodipodi.sourceforge.net/DTD/sodipodi-0.dtd"
   xmlns:inkscape="http://www.inkscape.org/namespaces/inkscape"
   id="ba230943-1bdb-4bd0-9561-c7824586c7f7"
   data-name="Layer 1"
   width="1019.4842"
   height="436.68123"
   viewBox="0 0 1019.4842 436.68123"
   version="1.1"
   sodipodi:docname="bg-laptop.svg"
   inkscape:version="1.0.2-2 (e86c870879, 2021-01-15)">
  <metadata
     id="metadata3083">
    <rdf:RDF>
      <cc:Work
         rdf:about="">
        <dc:format>image/svg+xml</dc:format>
        <dc:type
           rdf:resource="http://purl.org/dc/dcmitype/StillImage" />
      </cc:Work>
    </rdf:RDF>
  </metadata>
  <defs
     id="defs3081">
    <linearGradient
       inkscape:collect="always"
       id="linearGradient3691">
      <stop
         style="stop-color:#ff9f80;stop-opacity:1;"
         offset="0"
         id="stop3687" />
      <stop
         style="stop-color:#ff3355;stop-opacity:1"
         offset="1"
         id="stop3689" />
    </linearGradient>
    <linearGradient
       inkscape:collect="always"
       xlink:href="#linearGradient3691"
       id="linearGradient3693"
       x1="366.13559"
       y1="298.60391"
       x2="488.18079"
       y2="298.60391"
       gradientUnits="userSpaceOnUse"
       gradientTransform="matrix(1.0142936,0,0,1.0142936,-14.572081,0)" />
  </defs>
  <sodipodi:namedview
     pagecolor="#ffffff"
     bordercolor="#666666"
     borderopacity="1"
     objecttolerance="10"
     gridtolerance="10"
     guidetolerance="10"
     inkscape:pageopacity="0"
     inkscape:pageshadow="2"
     inkscape:window-width="1920"
     inkscape:window-height="1017"
     id="namedview3079"
     showgrid="false"
     inkscape:zoom="0.86907164"
     inkscape:cx="337.93678"
     inkscape:cy="270.04194"
     inkscape:window-x="-8"
     inkscape:window-y="-8"
     inkscape:window-maximized="1"
     inkscape:current-layer="ba230943-1bdb-4bd0-9561-c7824586c7f7"
     inkscape:document-rotation="0" />
  <path
     d="M105.002,663.39128,90.2579,608.62916l.69264-.18651a22.07516,22.07516,0,0,1,27.054,15.57522l.00037.00135L127.01,657.46609Z"
     transform="translate(-90.2579 -231.65939)"
     fill="#2f2e41"
     id="path3016"
     style="fill:#262626;fill-opacity:1" />
  <path
     d="M201.1368,668.34061,155.27068,634.9853l.42187-.58015a22.07517,22.07517,0,0,1,30.8348-4.87041l.00114.00082L214.54188,649.908Z"
     transform="translate(-90.2579 -231.65939)"
     fill="#2f2e41"
     id="path3020"
     style="fill:#262626;fill-opacity:1" />
  <path
     d="M328.45025,568.36357l-35.795-34.77263a18.07626,18.07626,0,0,0-23.66833-1.3221L201.4006,607.3525l6.05018,9.41084L271.98356,573.069l43.69437,57.13867,41.67764-20.83841Z"
     transform="translate(-90.2579 -231.65939)"
     fill="#2f2e41"
     id="path3022"
     style="fill:#262626;fill-opacity:1" />
  <path
     d="M412.41738,563.46316a150.631,150.631,0,0,1-7.3877,46.59159l-1.96286,6.03657-9.4111,43.0221-10.08328,2.68886-7.39442-9.41107-14.78884-10.7555L350.63366,624.158,341.41082,608.791l-2.87712-4.79967-10.08331-50.41649-38.31653-21.511-12.77217-2.01667,2.68889-7.39442,11.42774-15.46106L302.906,505.8472l3.36111-2.68888,2.68888,1.34443,14.82257,5.71013,48.05688-20.304,7.03142,1.14951L403.06674,511.225A150.49912,150.49912,0,0,1,412.41738,563.46316Z"
     fill="#ccc"
     id="path3030"
     style="fill:#393d60;fill-opacity:1"
     transform="translate(-90.2579 -231.65939)" />
  <polygon
     points="314.825 325.949 289.281 342.754 251.153 377.131 248.276 372.332 240.209 331.999 242.226 331.999 263.065 293.683 314.825 325.949"
     opacity="0.1"
     style="isolation:isolate;fill:#33354d;fill-opacity:1;opacity:1"
     id="polygon3032" />
  <polygon
     points="263.065 289.649 242.226 327.965 230.126 341.41 219.371 344.099 248.276 375.693 289.281 338.721 314.825 321.915 263.065 289.649"
     fill="#ccc"
     id="polygon3034"
     style="fill:#393d60;fill-opacity:1" />
  <path
     d="M324.19252,439.29866l-2.8405,1.09286a3.96532,3.96532,0,0,1-1.06033-5.50666q.02295-.03393.04661-.06735l-5.24917-.24564a39.63744,39.63744,0,0,1,59.17341-4.76951c.239-.8231,2.84419.7783,3.90783,2.40209.35739-1.33937,2.8001,5.13521,3.66407,9.71188.4-1.52384,1.93791.9362.59056,3.2967.8537-.12472,1.23931,2.05947.57843,3.27633.934-.43878.77654,2.16855-.23609,3.911,1.3327-.11841-.1137,27.33122-20.1137,25.33122-1.39236-6.39749-1-6-2.63957-14.22639-.76312-.81-1.59882-1.54779-2.43315-2.28425l-4.51259-3.9833c-5.2473-4.63182-10.02063-10.34844-17.01093-12.07955-4.80393-1.18968-7.84143-1.45827-5.22344-6.87151-2.36532.98706-4.57411,2.45493-6.96063,3.37169C323.90539,440.90187,324.23894,440.05545,324.19252,439.29866Z"
     transform="translate(-90.2579 -231.65939)"
     fill="#2f2e41"
     id="path3036"
     style="fill:#262626;fill-opacity:1" />
  <rect
     x="137.51364"
     y="351.37595"
     width="21.61009"
     height="21.61009"
     transform="translate(-313.1754 254.44578) rotate(-86.18992)"
     fill="#e6e6e6"
     style="isolation:isolate;fill:#f2f2f2;fill-opacity:1"
     id="rect3040" />
  <path
     d="M124.34354,362.13134l26.18282,1.74368-1.74369,26.18282-26.18282-1.74368Zm24.96862,2.80626-23.90605-1.59206-1.59206,23.906,23.90605,1.59206Z"
     transform="translate(-90.2579 -231.65939)"
     fill="#ccc"
     id="path3042"
     style="fill:#e5e5e5;fill-opacity:1" />
  <rect
     x="241.00867"
     y="288.77184"
     width="21.61009"
     height="21.61009"
     transform="translate(-147.57238 -172.07462) rotate(-12.12675)"
     fill="#e6e6e6"
     style="isolation:isolate;fill:#f2f2f2;fill-opacity:1"
     id="rect3044" />
  <path
     d="M245.27842,276.50957l5.51255,25.65526-25.65526,5.51254-5.51254-25.65526Zm4.15743,24.7795-5.0332-23.42436-23.42437,5.03319,5.03319,23.42438Z"
     transform="translate(-90.2579 -231.65939)"
     fill="#ccc"
     id="path3046"
     style="fill:#e5e5e5;fill-opacity:1" />
  <rect
     x="226.60299"
     y="392.67408"
     width="21.61008"
     height="21.61009"
     transform="translate(-301.94557 39.64172) rotate(-43.12712)"
     fill="#e6e6e6"
     style="isolation:isolate;fill:#f2f2f2;fill-opacity:1"
     id="rect3048" />
  <path
     d="M253.81456,385.99664,234.663,403.93538l-17.93873-19.15156,19.15156-17.93872Zm-19.09885,16.3261,17.48621-16.37883-16.37884-17.48618-17.48621,16.37884Z"
     transform="translate(-90.2579 -231.65939)"
     fill="#ccc"
     id="path3050"
     style="fill:#e5e5e5;fill-opacity:1" />
  <path
     d="M 962.4737,0 H 313.95186 A 17.850035,17.850035 0 0 0 296.1018,17.850035 V 379.19436 a 17.850086,17.850086 0 0 0 17.85006,17.85011 H 962.4737 a 17.850106,17.850106 0 0 0 17.85006,-17.85011 V 17.850035 A 17.850066,17.850066 0 0 0 962.4737,0 Z"
     fill="#3f3d56"
     id="path3052"
     style="fill:#262626;fill-opacity:1;stroke-width:1.01429" />
  <rect
     x="320.03326"
     y="31.546001"
     width="636.35895"
     height="358.97171"
     fill="#ffffff"
     id="rect3054"
     style="stroke-width:1.01429" />
  <circle
     cx="637.66882"
     cy="15.229101"
     r="6.5267458"
     fill="#ffffff"
     id="circle3056"
     style="stroke-width:1.01429" />
  <polygon
     points="329.89,385.015 329.89,31.102 777.858,385.015 "
     fill="#f2f2f2"
     style="isolation:isolate;fill:#f2f2f2;fill-opacity:1"
     id="polygon3058"
     transform="matrix(1.0142936,0,0,1.0142936,-14.572081,0)" />
  <circle
     cx="419.60437"
     cy="302.48694"
     r="61.1688"
     fill="#6c63ff"
     id="circle3060"
     style="fill:url(#linearGradient3693);fill-opacity:1;fill-rule:nonzero;stroke-width:1.01429" />
  <rect
     x="749.63416"
     y="218.04227"
     width="59.442898"
     height="12.420897"
     fill="#3f3d56"
     id="rect3064"
     style="fill:#f2f2f2;fill-opacity:1;stroke-width:1.01429" />
  <rect
     x="693.39557"
     y="150.75119"
     width="171.92017"
     height="5.323246"
     fill="#3f3d56"
     id="rect3066"
     style="fill:#f2f2f2;fill-opacity:1;stroke-width:1.01429" />
  <rect
     x="693.39557"
     y="171.6653"
     width="171.92017"
     height="5.323246"
     fill="#3f3d56"
     id="rect3068"
     style="fill:#f2f2f2;fill-opacity:1;stroke-width:1.01429" />
  <rect
     x="693.39557"
     y="192.57941"
     width="171.92017"
     height="5.323246"
     fill="#3f3d56"
     id="rect3070"
     style="fill:#f2f2f2;fill-opacity:1;stroke-width:1.01429" />
  <rect
     x="886.52783"
     y="53.028923"
     width="24.841835"
     height="24.841805"
     fill="#6c63ff"
     id="rect3072"
     style="fill:#ff3355;fill-opacity:1;stroke-width:1.01429" />
  <path
     d="M 922.90332,89.404411 H 892.73823 V 59.23932 h 30.16509 z m -28.85351,-1.311482 h 27.54193 V 60.550903 h -27.54199 z"
     fill="#cccccc"
     id="path3074"
     style="stroke-width:1.01429;fill:#e5e5e5;fill-opacity:1" />
  <path
     d="m 998.19122,383.99095 h -62.10456 v -4.47462 a 0.88716202,0.88716202 0 0 0 -0.88713,-0.88719 h -21.29307 a 0.88718231,0.88718231 0 0 0 -0.88726,0.88713 v 4.47468 h -13.30796 v -4.47462 a 0.88718231,0.88718231 0 0 0 -0.8872,-0.88719 h -21.29297 a 0.88717217,0.88717217 0 0 0 -0.88719,0.88719 v 0 4.47462 h -13.30809 v -4.47462 a 0.88717217,0.88717217 0 0 0 -0.88719,-0.88719 h -21.29306 a 0.88718231,0.88718231 0 0 0 -0.88721,0.88719 v 0 4.47462 h -13.30806 v -4.47462 a 0.88718231,0.88718231 0 0 0 -0.8872,-0.88719 h -21.29298 a 0.88716202,0.88716202 0 0 0 -0.8872,0.88713 v 4.47468 h -13.30808 v -4.47462 a 0.88718231,0.88718231 0 0 0 -0.8872,-0.88719 h -21.29298 a 0.88717217,0.88717217 0 0 0 -0.88719,0.88719 v 0 4.47462 h -13.30815 v -4.47462 a 0.88717217,0.88717217 0 0 0 -0.8872,-0.88719 h -21.29298 a 0.88718231,0.88718231 0 0 0 -0.8872,0.88719 v 0 4.47462 h -13.30808 v -4.47462 a 0.88718231,0.88718231 0 0 0 -0.88721,-0.88719 H 550.15166 a 0.88717217,0.88717217 0 0 0 -0.88719,0.88719 v 0 4.47462 h -13.30815 v -4.47462 a 0.88717217,0.88717217 0 0 0 -0.88719,-0.88719 H 513.7762 a 0.88718231,0.88718231 0 0 0 -0.8872,0.88719 v 0 4.47462 h -13.30814 v -4.47462 a 0.88716202,0.88716202 0 0 0 -0.88713,-0.88719 h -21.29306 a 0.88717217,0.88717217 0 0 0 -0.8872,0.88719 v 0 4.47462 h -13.30814 v -4.47462 a 0.88717217,0.88717217 0 0 0 -0.88719,-0.88719 h -21.29298 a 0.88718231,0.88718231 0 0 0 -0.88721,0.88719 v 0 4.47462 h -13.30808 v -4.47462 a 0.88717217,0.88717217 0 0 0 -0.88719,-0.88719 H 404.6497 a 0.88718231,0.88718231 0 0 0 -0.88721,0.88719 v 0 4.47462 h -13.30814 v -4.47462 a 0.88718231,0.88718231 0 0 0 -0.8872,-0.88719 h -21.293 a 0.88718231,0.88718231 0 0 0 -0.8872,0.88713 v 4.47468 h -13.30809 v -4.47462 a 0.88717217,0.88717217 0 0 0 -0.88717,-0.88719 h -21.29298 a 0.8872026,0.8872026 0 0 0 -0.8872,0.88719 v 0 4.47462 h -40.8116 a 21.292984,21.292984 0 0 0 -21.29293,21.29298 v 9.62819 a 21.292974,21.292974 0 0 0 21.29293,21.29292 H 998.1912 a 21.292994,21.292994 0 0 0 21.293,-21.29292 v -9.62819 a 21.292964,21.292964 0 0 0 -21.29298,-21.29298 z"
     fill="#3f3d56"
     id="path3076"
     style="fill:#262626;fill-opacity:1;stroke-width:1.01429" />
  <polygon
     points="254.326,375.693 285.92,416.699 271.131,426.11 253.653,426.11 172.315,395.86 53.332,417.371 49.971,391.826 158.871,344.099 "
     fill="#2f2e41"
     id="polygon3026"
     transform="translate(-6.05,-3.361)"
     style="fill:#262626;fill-opacity:1" />
</svg>
