<?xml version="1.0" encoding="UTF-8" standalone="no"?>
<svg
   xmlns:dc="http://purl.org/dc/elements/1.1/"
   xmlns:cc="http://creativecommons.org/ns#"
   xmlns:rdf="http://www.w3.org/1999/02/22-rdf-syntax-ns#"
   xmlns:svg="http://www.w3.org/2000/svg"
   xmlns="http://www.w3.org/2000/svg"
   xmlns:xlink="http://www.w3.org/1999/xlink"
   xmlns:sodipodi="http://sodipodi.sourceforge.net/DTD/sodipodi-0.dtd"
   xmlns:inkscape="http://www.inkscape.org/namespaces/inkscape"
   data-name="Layer 1"
   width="720"
   height="540"
   style=""
   version="1.1"
   id="svg104"
   sodipodi:docname="bg-smartphone.svg"
   inkscape:version="1.0.2-2 (e86c870879, 2021-01-15)">
  <metadata
     id="metadata108">
    <rdf:RDF>
      <cc:Work
         rdf:about="">
        <dc:format>image/svg+xml</dc:format>
        <dc:type
           rdf:resource="http://purl.org/dc/dcmitype/StillImage" />
        <dc:title />
      </cc:Work>
    </rdf:RDF>
  </metadata>
  <sodipodi:namedview
     pagecolor="#ffffff"
     bordercolor="#666666"
     borderopacity="1"
     objecttolerance="10"
     gridtolerance="10"
     guidetolerance="10"
     inkscape:pageopacity="0"
     inkscape:pageshadow="2"
     inkscape:window-width="1920"
     inkscape:window-height="1017"
     id="namedview106"
     showgrid="false"
     inkscape:zoom="1.5314815"
     inkscape:cx="310.12276"
     inkscape:cy="274.03021"
     inkscape:window-x="-8"
     inkscape:window-y="-8"
     inkscape:window-maximized="1"
     inkscape:current-layer="g88"
     inkscape:document-rotation="0" />
  <rect
     id="backgroundrect"
     width="100%"
     height="100%"
     x="0"
     y="0"
     fill="none"
     stroke="none"
     class=""
     style="" />
  <g
     class="currentLayer"
     style=""
     id="g88">
    <title
       id="title61">Layer 1</title>
    <path
       d="m 269.84712,128.42857 h -2.96944 V 47.081511 A 47.081461,47.081461 0 0 0 219.79626,0 H 47.451409 A 47.081461,47.081461 0 0 0 0.36985813,47.081361 V 493.35782 A 47.081461,47.081461 0 0 0 47.451269,540.43933 H 219.79603 A 47.081471,47.081471 0 0 0 266.87763,493.358 V 186.33279 h 2.96949 z"
       fill="#33354d"
       class=""
       id="svg_27"
       fill-opacity="1"
       style="stroke-width:0.997263;fill:#262626;fill-opacity:1" />
    <path
       d="M 220.37523,12.2826 H 197.88235 A 16.701585,16.701585 0 0 1 182.41897,35.291928 H 83.70159 A 16.701555,16.701555 0 0 1 68.238215,12.2826 H 47.229805 A 35.153946,35.153946 0 0 0 12.075829,47.436526 V 492.98258 a 35.153956,35.153956 0 0 0 35.153936,35.15398 H 220.37523 a 35.153956,35.153956 0 0 0 35.15398,-35.15394 v 0 V 47.436526 A 35.153926,35.153926 0 0 0 220.37523,12.2826 Z"
       fill="#ffffff"
       class=""
       id="svg_30"
       style="stroke-width:0.997093" />
    <circle
       data-name="Ellipse 44"
       cx="135.10848999023438"
       cy="261.2336120605469"
       r="84.44619750976562"
       fill="#ff3355"
       class="selected"
       id="svg_31"
       fill-opacity="1"
       style="fill-opacity:1;fill:url(#linearGradient118)" />
    <path
       id="b582f34e-fd02-4670-b1d8-d23f069ed737"
       data-name="Path 395"
       d="M126.74031968776706,293.44733 a8.75832,8.75832 0 0 1 -5.26905,-1.75113 l-0.0942600000000004,-0.07069000000000016 l-19.846,-15.18155 a8.81941,8.81941 0 1 1 10.73182,-13.998429999999999 l12.85463,9.85753 L155.49365968776704,232.67399999999998 a8.81571,8.81571 0 0 1 12.36,-1.63259 l0.0025600000000000076,0.0019200000000000076 l-0.18852000000000024,0.26177 l0.1936300000000003,-0.26177 a8.82633,8.82633 0 0 1 1.6306700000000007,12.36249 l-35.729,46.5917 a8.821,8.821 0 0 1 -7.01492,3.4394 z"
       fill="#fff"
       class="" />
    <path
       d="M601.1567886466312,470.5944341599941 a26.26334,26.26334 0 0 1 3.60591,-4.59509 c0.56451,-0.5855400000000006 1.16006,-1.13726 1.774,-1.6740000000000008 a28.1419,28.1419 0 0 1 46.402,16.00717 c4.1243,-15.25223 -6.61178,-30.27563 -17.40582,-41.81557 c-10.79975,-11.536 -23.14326,-24.19113 -23.08122,-39.99834 c0.030210000000000046,-8.79567 4.33288,-16.64261 10.82915,-22.46017 c0.20041000000000037,-0.17628000000000021 0.40083,-0.3523100000000007 0.60533,-0.52222 a41.0711,41.0711 0 0 1 28.288,-9.85832 c19.199,1.02837 35.96271,13.93191 47.60455,29.23771 c18.73895,24.62722 26.9504,59.1966 13.83175,87.23109 c-11.539,24.65645 -36.14884,39.298 -61.26527,51.06882 q-5.26069,2.466 -10.50056,4.78336 c-0.02286000000000006,0.006000000000000023 -0.04816000000000009,0.022550000000000084 -0.07143000000000002,0.028730000000000037 c-0.16817000000000001,0.07378000000000012 -0.33634000000000086,0.14776000000000034 -0.4939000000000006,0.22384000000000046 c-0.7208600000000006,0.3180000000000006 -1.44212,0.63631 -2.15685,0.95035 l0.3310000000000007,0.2164900000000005 l1.0327,0.6686100000000017 c-0.3580000000000003,-0.21685000000000001 -0.71228,-0.4271600000000003 -1.07026,-0.6440000000000013 c-0.10653000000000012,-0.06567000000000019 -0.2191900000000003,-0.1274100000000003 -0.3253200000000012,-0.19333000000000033 c-12.33575,-7.40167 -24.84335,-15.23213 -33.36543,-26.78769 C596.8867686466313,500.46395415999416 593.3331086466312,483.27835415999414 601.1567886466312,470.5944341599941 z"
       fill="#f1f1f1"
       id="svg_4"
       class="" />
    <path
       d="M683.1191226863862,443.0713101202392 a69.81787,69.81787 0 0 1 5.37575,19.52985 a60.62388,60.62388 0 0 1 -0.73111,18.01244 a77.67473,77.67473 0 0 1 -15.57738,33.3225 a111.79167,111.79167 0 0 1 -20.18167,19.61994 q-5.26048,2.466 -10.50056,4.78335 c-0.022950000000000085,0.006000000000000021 -0.04825000000000008,0.022530000000000057 -0.07151,0.028710000000000034 c-0.16800000000000043,0.0738 -0.336300000000001,0.1477600000000003 -0.4940000000000003,0.22384000000000043 c-0.7208600000000006,0.31800000000000056 -1.4420000000000002,0.63631 -2.15666,0.9503400000000006 l0.3310000000000006,0.21650000000000028 l1.03268,0.6686000000000019 c-0.3580500000000003,-0.21683000000000024 -0.7122700000000006,-0.4271500000000003 -1.07032,-0.6440000000000012 c-0.10638,-0.06569000000000023 -0.2190000000000003,-0.12739 -0.32505000000000056,-0.19332000000000021 a61.79626,61.79626 0 0 0 -11.20738,-55.64651 A62.32549,62.32549 0 0 0 604.4223926863862,466.3399201202393 c0.5644,-0.58556 1.1597600000000001,-1.13725 1.7736800000000001,-1.6740000000000008 a64.61916,64.61916 0 0 1 9.90358,5.655 a63.31719,63.31719 0 0 1 23.95863,31.73973 a64.7349,64.7349 0 0 1 1.40482,36.18842 c0.6191300000000006,-0.40489 1.24061,-0.8203400000000006 1.8450000000000002,-1.23364 c11.492,-7.7498000000000005 22.08315,-17.05708 30.06094,-28.47079 a72.261,72.261 0 0 0 12.82157,-32.58459 c1.529,-12.83375 -1.6821900000000007,-25.454 -7.41183,-36.90528 a151.25676,151.25676 0 0 0 -23.69628,-33.67008 a171.87225,171.87225 0 0 0 -31.77612,-27.322 a1.23572,1.23572 0 0 1 -0.3661500000000003,-1.6637000000000008 a1.05106,1.05106 0 0 1 0.6054,-0.52219 a0.915,0.915 0 0 1 0.77957,0.1576400000000003 c1.4403100000000002,0.96125 2.86827,1.93058 4.2789,2.92929 a173.8225,173.8225 0 0 1 31.76516,29.01581 C669.4003326863862,418.53455012023926 677.6191226863862,430.2612101202393 683.1191226863862,443.0713101202392 z"
       fill="#fff"
       id="svg_5"
       class="" />
    <circle
       id="ae2e9f9a-ed63-4994-961d-af4fbb6f5199"
       data-name="Ellipse 44"
       cx="394.04705810546875"
       cy="35.033077239990234"
       r="17.934059143066406"
       fill="#f1f1f1"
       class="" />
    <circle
       id="b777be60-18da-4893-88a8-55a275d98bc2"
       data-name="Ellipse 44"
       cx="654.6132202148438"
       cy="188.911376953125"
       r="10.934061050415039"
       fill="#f1f1f1"
       class="" />
    <circle
       id="a703acd2-aa23-4bff-9a86-75b7d9a928c1"
       data-name="Ellipse 44"
       cx="334.6131591796875"
       cy="218.911376953125"
       r="10.934061050415039"
       fill="#f1f1f1"
       class="" />
    <polygon
       points="551.5844306945801,155.18391454219818 654.2134590148926,45.6549152135849 640.3704414367676,23.646921515464783 511.6474189758301,132.51094090938568 551.5844306945801,155.18391454219818 "
       fill="#393d60"
       id="svg_8"
       class=""
       fill-opacity="1" />
    <circle
       cx="528.6791381835938"
       cy="52.634918212890625"
       r="36"
       fill="#33354d"
       id="svg_9"
       class=""
       fill-opacity="1"
       style="fill:#262626;fill-opacity:1" />
    <path
       d="M531.5729226863862,32.29813012023925 A75.48534,75.48534 0 0 1 559.0360526863861,14.538920120239254 c6.63868,-2.45941 13.86451,-3.97894 20.80494,-2.58221 c6.94067,1.39666 13.50415,6.19806 15.44042,13.00775 c1.5832600000000001,5.56836 -0.05151000000000013,11.56378 -2.50878,16.80554 c-2.457,5.24176 -5.73755,10.10248 -7.72461,15.539860000000001 a35.468,35.468 0 0 0 35.68921,47.56231 c-6.81934,0.91437 -13.10547,4.119 -19.771,5.82483 c-6.66553,1.70575 -14.53272,1.59009 -19.48608,-3.18524 c-5.241,-5.05243 -5.346,-13.26715 -5.09253,-20.54248 q0.5650700000000006,-16.22241 1.13012,-32.44495 c0.19214000000000034,-5.51544 0.3562,-11.20764 -1.6330500000000003,-16.35553 c-1.9889999999999999,-5.14788 -6.71607,-9.6557 -12.23462,-9.60882 c-4.18262,0.03546 -7.88452,2.56927 -11.23853,5.068 c-3.35449,2.49878 -6.90454,5.16474 -11.0708,5.53638 c-4.166,0.3717000000000003 -8.92285,-2.71143 -8.61108,-6.88245 z"
       fill="#33354d"
       id="svg_10"
       class=""
       fill-opacity="1"
       style="fill:#262626;fill-opacity:1" />
    <polygon
       points="494.2693977355957,168.03993260860443 416.75444412231445,265.3399051427841 393.1264228820801,254.4919284582138 484.23637771606445,112.64691197872162 494.2693977355957,168.03993260860443 "
       fill="#3f3d56"
       id="svg_12"
       class="" />
    <polygon
       points="494.2694091796875,168.03993225097656 416.75445556640625,265.33990478515625 393.1264343261719,254.49192810058594 484.23638916015625,112.64691162109375 494.2694091796875,168.03993225097656 "
       fill="#393d60"
       class=""
       id="svg_2"
       fill-opacity="1" />
    <path
       d="M436.5614226863861,519.2168601202393 l-32.00113,-0.001280000000000003 h-0.001310000000000004 A20.39476,20.39476 0 0 0 384.16536268638606,539.6089201202393 v0.662720000000002 l52.39508,0.0019500000000000077 z"
       fill="#33354d"
       id="svg_14"
       class=""
       fill-opacity="1"
       style="fill:#262626;fill-opacity:1" />
    <path
       d="M589.2189526863862,491.1840301202393 L562.2898726863862,508.4727201202393 l-0.0010900000000000026,0.0006700000000000023 a20.39471,20.39471 0 0 0 -6.14264,28.179 l0.3580000000000003,0.5576800000000006 l44.09051,-28.3067 z"
       fill="#33354d"
       id="svg_16"
       class=""
       fill-opacity="1"
       style="fill:#262626;fill-opacity:1" />
    <path
       d="M561.9260526863861,252.87501012023927 s-44.83957,-148.9274 -59.24978,-150.93993 s-37.62808,38.21305 -37.62808,38.21305 c-30.103,38.40821 -61.144,162.82087 -61.144,162.82087 s51.74659,3.23809 89.57339,23.36344 s82.46764,-1.0188 82.46764,-1.0188 z"
       fill="#393d60"
       id="svg_17"
       class=""
       fill-opacity="1" />
    <path
       d="M561.9260526863861,252.87501012023927 s-44.83957,-148.9274 -59.24978,-150.93993 s-31.73106,38.62126 -31.73106,38.62126 c-15,62 -67.041,162.41266 -67.041,162.41266 s51.74659,3.23809 89.57339,23.36344 s82.46764,-1.0188 82.46764,-1.0188 z"
       opacity="0.1"
       style="isolation:isolate;opacity:1;fill:#33354d;fill-opacity:1"
       id="svg_18"
       class="" />
    <polygon
       points="525.1384468078613,208.31694066524506 525.1384468078613,283.1519168615341 533.9454536437988,391.55590856075287 577.9454536437988,473.555939078331 556.9454536437988,488.555939078331 496.9454231262207,410.55590856075287 473.21440505981445,333.10690343379974 435.9454231262207,504.555939078331 407.9454231262207,502.555939078331 427.39140701293945,264.8449100255966 464.29240798950195,197.93490636348724 525.1384468078613,208.31694066524506 "
       fill="#33354d"
       id="svg_19"
       class=""
       fill-opacity="1"
       style="fill:#262626;fill-opacity:1" />
    <path
       d="M479.92897268638615,135.93460012023928 c-14,14 -1,29 -1,29 l-16,36 l63,17 l22.01624,-98.37826 l-15,-16 c-30,-1 -30.01624,-1.6217400000000008 -30.01624,-1.6217400000000008 C497.67275268638616,107.07843012023926 479.92897268638615,135.93460012023928 479.92897268638615,135.93460012023928 z"
       fill="#ff3355"
       id="svg_20"
       class="selected"
       fill-opacity="1"
       style="fill-opacity:1;fill:url(#linearGradient116)" />
    <path
       d="M550.482322686386,109.36445012023927 a26.8839,26.8839 0 0 0 -37.77734,5.91308 c-15.83789,22.05225 -30.48242,57.66114 -10.30469,102.07178 c32.39893,71.30957 60.59326,107.81445 72.05518000000001,107.81055 a4.55981,4.55981 0 0 0 1.47314,-0.23145000000000004 c7.05518,-2.3935500000000003 17.25586,-14.332 19.10254,-24.85254 c0.6611300000000011,-3.76562 0.50391,-9.01074 -3.99951,-12.6123 c-12.93555,-10.34619 -36.15772,-42.56152 -43.40186,-84.96387 c-4.00341,-23.42969 3.76026,-44.772 10.978,-58.5498 a26.87922,26.87922 0 0 0 -7.77734,-34.3291 h0 z"
       fill="#3f3d56"
       id="svg_21"
       class="" />
    <path
       d="M550.482322686386,109.36445012023927 a26.8839,26.8839 0 0 0 -37.77734,5.91308 c-15.83789,22.05225 -30.48242,57.66114 -10.30469,102.07178 c32.39893,71.30957 60.59326,107.81445 72.05518000000001,107.81055 a4.55981,4.55981 0 0 0 1.47314,-0.23145000000000004 c7.05518,-2.3935500000000003 17.25586,-14.332 19.10254,-24.85254 c0.6611300000000012,-3.76562 0.50391,-9.01074 -3.99951,-12.6123 c-12.93555,-10.34619 -36.15772,-42.56152 -43.40186,-84.96387 c-4.00341,-23.42969 3.76026,-44.772 10.978,-58.5498 a26.87922,26.87922 0 0 0 -7.77734,-34.3291 h0 z"
       fill="#393d60"
       class=""
       id="svg_3"
       fill-opacity="1"
       style="fill:#393d60;fill-opacity:1" />
    <ellipse
       cx="417.87823"
       cy="298.07547"
       transform="matrix(0.88675402,-0.46224162,0.49733657,0.86755768,0,0)"
       fill="#ffffff"
       id="svg_22"
       class=""
       fill-opacity="1"
       filter=""
       rx="27.837496"
       ry="27.132629"
       style="stroke-width:1.03708" />
    <path
       d="M480.55112268638607,59.84201012023925 h38.26556 l0.39252000000000087,-5.49379 l1.96191,5.49379 h5.8920900000000005 l0.77759,-10.88853 l3.88855,10.88853 h11.40088 v-0.53947 a28.62427,28.62427 0 0 0 -28.591920000000002,-28.59215 h-5.3950000000000005 A28.62448,28.62448 0 0 0 480.55112268638607,59.30254012023926 z"
       fill="#33354d"
       id="svg_23"
       class=""
       fill-opacity="1"
       style="fill:#262626;fill-opacity:1" />
    <path
       d="M537.3494026863862,79.58924012023925 L553.6791226863861,74.29052012023925 V34.63492012023926 H522.8347626863861 l0.7636100000000012,0.76243 C534.223002686386,46.00826012023924 546.0394526863861,83.65441012023928 537.3494026863862,79.58924012023925 z"
       fill="#33354d"
       id="svg_24"
       class=""
       fill-opacity="1"
       style="fill:#262626;fill-opacity:1" />
  </g>
  <defs
     id="defs102">
    <linearGradient
       inkscape:collect="always"
       id="linearGradient965">
      <stop
         style="stop-color:#ff9f80;stop-opacity:1"
         offset="0"
         id="stop961" />
      <stop
         style="stop-color:#ff3355;stop-opacity:1"
         offset="1"
         id="stop963" />
    </linearGradient>
    <filter
       id="f166"
       inkscape:menu-tooltip="Draws a black outline around"
       inkscape:menu="ABCs"
       inkscape:label="Black outline"
       color-interpolation-filters="sRGB">
      <feGaussianBlur
         stdDeviation="2"
         in="SourceAlpha"
         result="result0"
         id="feGaussianBlur90" />
      <feComposite
         result="result3"
         operator="arithmetic"
         in2="result0"
         in="SourceGraphic"
         k2="1"
         k3="10"
         id="feComposite92" />
      <feComposite
         k2="1"
         operator="in"
         in="result3"
         result="result4"
         in2="result3"
         id="feComposite94" />
    </filter>
    <linearGradient
       id="svg_1"
       spreadMethod="pad">
      <stop
         stop-color="#ff9f80"
         stop-opacity="1"
         offset="0"
         id="stop97" />
      <stop
         stop-color="#00607f"
         stop-opacity="1"
         offset="1"
         id="stop99" />
    </linearGradient>
    <linearGradient
       inkscape:collect="always"
       xlink:href="#linearGradient965"
       id="linearGradient116"
       x1="463.60339"
       y1="160.62878"
       x2="529.55261"
       y2="160.62878"
       gradientUnits="userSpaceOnUse" />
    <linearGradient
       inkscape:collect="always"
       xlink:href="#linearGradient965"
       id="linearGradient118"
       x1="51.584038"
       y1="263.79688"
       x2="219.39542"
       y2="263.79688"
       gradientUnits="userSpaceOnUse" />
  </defs>
</svg>
